<svg version="1.1" id="Layer_1" xmlns="http://www.w3.org/2000/svg" xmlns:xlink="http://www.w3.org/1999/xlink" x="0px" y="0px"
	 width="100%" viewBox="0 0 1024 1024" enable-background="new 0 0 1024 1024" xml:space="preserve">
<path fill="#000000" opacity="1.000000" stroke="none" 
	d="
M343.656433,396.993530 
	C343.656036,344.332367 343.653381,292.169586 343.659027,240.006836 
	C343.659790,233.047577 343.679260,232.999390 350.509003,232.999634 
	C416.337372,233.001953 482.166321,232.874557 547.993835,233.122009 
	C569.021484,233.201065 590.122375,234.646072 609.816772,242.785400 
	C653.988586,261.040833 681.176392,293.493042 687.207092,341.359650 
	C693.911682,394.575165 672.298401,434.907928 627.845398,463.741150 
	C626.745178,464.454742 625.433228,464.947235 624.917725,466.498993 
	C625.621765,469.138397 628.222412,469.453278 630.226562,470.341431 
	C659.642212,483.377045 682.444885,503.988800 696.941467,532.507202 
	C717.891357,573.720947 714.661621,614.774658 691.127014,653.938110 
	C671.428833,686.717407 642.294067,707.065979 604.589172,714.644714 
	C588.832947,717.811646 572.794617,718.038330 556.843811,718.088867 
	C488.016357,718.306824 419.187744,718.154724 350.359558,718.130676 
	C343.751892,718.128418 343.662506,718.049622 343.661896,711.429199 
	C343.653351,619.602722 343.666656,527.776306 343.605286,435.949860 
	C343.602936,432.443756 344.503418,429.537292 346.526764,426.677948 
	C354.129364,415.934113 361.548615,405.060669 369.073212,394.261292 
	C370.175781,392.678894 370.939270,390.703461 373.896240,389.829071 
	C404.220978,462.367737 434.550415,534.917664 464.879822,607.467529 
	C465.439240,607.429504 465.998657,607.391479 466.558044,607.353455 
	C473.618134,551.172180 480.678223,494.990936 487.738281,438.809692 
	C488.258362,438.641754 488.778442,438.473785 489.298553,438.305817 
	C505.378326,458.755157 521.458130,479.204498 538.262207,500.575012 
	C551.362000,483.585907 561.937622,465.958435 574.865662,448.159576 
	C601.164978,508.365417 626.990234,567.485962 652.815552,626.606506 
	C652.437988,626.954163 652.060425,627.301880 651.682800,627.649536 
	C646.245117,625.437439 640.807434,623.225281 633.950256,620.435730 
	C646.698608,638.425537 661.592712,652.674316 675.548035,669.534912 
	C676.938416,648.607117 677.284729,628.916626 677.860596,607.808105 
	C670.721191,613.023743 668.244080,619.919678 662.360840,625.921875 
	C633.801697,560.448547 605.533081,495.641327 576.588318,429.283936 
	C563.297058,448.647675 550.947144,466.639984 538.012512,485.484131 
	C519.412781,461.944183 501.454041,439.215454 483.495300,416.486725 
	C482.740662,416.672821 481.985992,416.858887 481.231354,417.044952 
	C474.768982,468.991608 468.306580,520.938232 461.844177,572.884888 
	C461.370575,573.010925 460.896973,573.136963 460.423340,573.263000 
	C432.310455,505.941559 404.197571,438.620148 376.084686,371.298737 
	C375.443329,371.260681 374.801941,371.222595 374.160583,371.184540 
	C364.563232,384.966248 354.965881,398.747986 344.678986,413.519867 
	C342.959869,407.290375 343.996826,402.341278 343.656433,396.993530 
z"/>
</svg>