<svg xmlns="http://www.w3.org/2000/svg" version="1.1" xmlns:xlink="http://www.w3.org/1999/xlink" width="1563" height="1563"><svg version="1.1" xmlns="http://www.w3.org/2000/svg" width="1563" height="1563">
<path d="M0 0 C515.79 0 1031.58 0 1563 0 C1563 515.79 1563 1031.58 1563 1563 C1047.21 1563 531.42 1563 0 1563 C0 1047.21 0 531.42 0 0 Z " fill="#FEFEFE" transform="translate(0,0)"></path>
<path d="M0 0 C81.71579447 -0.0806627 81.71579447 -0.0806627 115.92382812 -0.09765625 C123.75268563 -0.10157152 131.58154306 -0.10561235 139.41040039 -0.10986328 C140.39151128 -0.11039078 141.37262216 -0.11091828 142.38346368 -0.11146176 C158.18690708 -0.12014131 173.9903358 -0.13589836 189.79377051 -0.15430559 C206.03327921 -0.17306186 222.27278027 -0.18412879 238.51229936 -0.18817699 C248.51893574 -0.19091021 258.52553064 -0.19951747 268.53215424 -0.21583293 C275.41021815 -0.22647064 282.28826087 -0.22958541 289.16633239 -0.22700275 C293.12430813 -0.22573193 297.08221182 -0.2275677 301.04017448 -0.23841095 C316.78269716 -0.2794276 332.37761069 -0.13562875 348.03118479 1.76444745 C350.84718113 2.10135826 353.66919722 2.36968286 356.4921875 2.640625 C404.41454568 7.84714289 451.37898944 31.08947284 482.10107422 68.92285156 C513.83828068 108.9571497 529.28832765 157.27965249 524.69091797 208.43945312 C520.80062953 241.96648553 508.51849975 274.15524177 488 301 C487.01580078 302.30324219 487.01580078 302.30324219 486.01171875 303.6328125 C468.960326 325.59133485 448.05823067 342.2676471 424 356 C427.52462579 358.34975052 431.25140347 359.89547515 435.125 361.5625 C461.70106611 373.25757409 487.50742301 389.56767874 506.34765625 412.04296875 C507.44718762 413.34525059 508.58065917 414.61962958 509.74609375 415.86328125 C524.70329643 431.87774981 536.26025445 450.99722278 545 471 C545.37769531 471.8353125 545.75539063 472.670625 546.14453125 473.53125 C565.26245281 518.01278861 559.9677704 570.99025624 543 615 C540.68465781 620.54645405 537.96673621 625.77806188 535 631 C534.35738636 632.18903155 533.71677987 633.37914993 533.078125 634.5703125 C511.03346449 675.07689165 474.2840001 707.99285881 431 724 C430.15824219 724.31308105 429.31648438 724.62616211 428.44921875 724.94873047 C410.8390766 731.3941217 393.07318497 735.12443141 374.40940595 736.78290993 C372.76412354 736.93115165 371.11962223 737.08826178 369.47591472 737.25305074 C361.27163343 738.02495576 353.12495744 738.1383391 344.88995361 738.12025452 C343.39466863 738.12069146 341.89938373 738.12156863 340.40409923 738.12284368 C336.3266349 738.12506442 332.24919718 738.12110077 328.17173624 738.11606562 C323.76290804 738.11172629 319.3540812 738.11321001 314.94525146 738.1139679 C307.31706642 738.11449093 299.68888997 738.11136719 292.06070709 738.10573006 C281.03178623 738.09758514 270.00286949 738.09499677 258.97394595 738.09374207 C241.07800588 738.09155624 223.18207039 738.0849089 205.28613281 738.07543945 C187.90722679 738.06625318 170.52832202 738.05917829 153.14941406 738.05493164 C152.07724834 738.05466892 151.00508261 738.05440619 149.90042701 738.05413551 C144.52140898 738.05283042 139.14239094 738.05156673 133.7633729 738.05032361 C89.17557877 738.03996562 44.58778962 738.02236009 0 738 C-0.34371871 682.70351194 -0.60783987 627.40713231 -0.76597994 572.10978513 C-0.78473939 565.57383938 -0.80415433 559.03789574 -0.82397461 552.50195312 C-0.82790927 551.2008253 -0.83184392 549.89969747 -0.83589781 548.55914153 C-0.90107652 527.52189906 -1.01929383 506.48527466 -1.15729194 485.44839822 C-1.29782058 463.84475349 -1.38093535 442.2414313 -1.41132742 420.63734829 C-1.43185717 407.31795526 -1.49657086 394.00030947 -1.618747 380.68145461 C-1.69835408 371.5343884 -1.72193104 362.38821858 -1.70252066 353.24083154 C-1.69296026 347.97121641 -1.70706712 342.7046424 -1.78808212 337.43557549 C-2.37093632 297.59119284 -2.37093632 297.59119284 13.250718 280.91142678 C15.68652966 278.24983441 17.59772812 275.3949124 19.578125 272.3828125 C20.80083729 270.6293388 22.02474321 268.87669665 23.25 267.125 C26.98481924 261.78379214 30.71696706 256.44399974 34.34765625 251.03125 C34.85329102 250.28085449 35.35892578 249.53045898 35.87988281 248.75732422 C36.8065587 247.37804896 37.72693161 245.99450894 38.63964844 244.60595703 C41.66685693 240.11104769 41.66685693 240.11104769 45 239 C54.21145001 260.74353699 63.40905009 282.49221502 72.4375 304.3125 C72.7785376 305.13670441 73.1195752 305.96090881 73.47094727 306.81008911 C74.87731711 310.20924155 76.28364333 313.60841203 77.68981934 317.00764465 C82.0886705 327.63718625 86.51234523 338.25638765 90.9375 348.875 C91.3584494 349.88519196 91.7793988 350.89538391 92.21310425 351.93618774 C98.49484984 367.00909923 104.79435147 382.07452283 111.10421753 397.13568115 C117.51265004 412.43270518 123.89526184 427.74038864 130.27050781 443.05126953 C136.16522117 457.20720358 142.07477585 471.35681106 148 485.5 C154.09934898 500.06078322 160.18862323 514.62573496 166.26342773 529.19677734 C167.11017946 531.22764477 167.95717286 533.25841145 168.80444336 535.2890625 C174.5951029 549.16887474 180.32345065 563.0731242 186 577 C188.54238794 560.86359503 190.6136791 544.67511369 192.62304688 528.46514893 C193.03365851 525.16066031 193.44892107 521.85675473 193.86328125 518.55273438 C195.31846673 506.912212 196.74919248 495.26949856 198.08203125 483.61425781 C200.565291 461.90941085 203.19748947 440.22660722 205.953125 418.5546875 C206.04007016 417.87088902 206.12701531 417.18709054 206.21659517 416.48257089 C207.28461265 408.0858457 208.35642447 399.68960655 209.42970908 391.29355317 C210.89104824 379.86145933 212.34812242 368.42882118 213.8047359 356.99612439 C214.39385021 352.37307378 214.98445737 347.75021538 215.57550049 343.12741089 C215.88271109 340.72019713 216.18990211 338.31298088 216.49707031 335.90576172 C216.63523163 334.82748108 216.77339294 333.74920044 216.91574097 332.63824463 C217.0445163 331.62783112 217.17329163 330.6174176 217.30596924 329.5763855 C217.48825954 328.15878748 217.48825954 328.15878748 217.67423248 326.71255112 C217.98744333 324.10455494 218.22983979 321.49651638 218.46893311 318.88088989 C219 315 219 315 221 313 C227.96892352 321.50907747 234.86945664 330.04948197 241.54296875 338.79296875 C244.1440258 342.19854123 246.78691993 345.57039565 249.4375 348.9375 C249.89527832 349.51902832 250.35305664 350.10055664 250.82470703 350.69970703 C251.75259621 351.8779014 252.68065654 353.05596099 253.60888672 354.23388672 C255.90874237 357.15371048 258.20415945 360.07701893 260.5 363 C261.4166451 364.16668361 262.33331177 365.33335027 263.25 366.5 C268.75 373.5 268.75 373.5 270.12573242 375.25097656 C271.03990015 376.41443323 271.95412516 377.57784489 272.8684082 378.74121094 C275.198787 381.70661899 277.52808115 384.67286857 279.85546875 387.640625 C285.20175901 394.45565618 290.5718394 401.24979455 296 408 C298.96984389 405.1873231 301.30210135 402.30605557 303.58203125 398.9140625 C304.25862793 397.91270264 304.93522461 396.91134277 305.63232422 395.87963867 C306.35178223 394.80560791 307.07124023 393.73157715 307.8125 392.625 C308.575204 391.49357304 309.338395 390.36247423 310.10205078 389.23168945 C311.65943334 386.92498053 313.21490223 384.61699963 314.76904297 382.30810547 C317.95207402 377.58824656 321.16282933 372.88755164 324.375 368.1875 C333.27664939 355.1431131 342.13720071 342.0707972 351 329 C354.16048366 332.70249013 355.86470193 336.88117892 357.7734375 341.3046875 C358.13322189 342.12712952 358.49300629 342.94957153 358.86369324 343.79693604 C360.03916954 346.48745703 361.20713777 349.18116634 362.375 351.875 C363.19349742 353.75262961 364.01243026 355.63006948 364.83178711 357.50732422 C367.22804671 363.00191526 369.61483282 368.50058687 372 374 C372.61368825 375.41344675 373.22745062 376.82686133 373.84130859 378.24023438 C376.45788899 384.26603087 379.06848828 390.29439816 381.67578125 396.32421875 C387.32469285 409.38461602 393.02487407 422.422788 398.71435547 435.46554565 C401.2218917 441.21437004 403.72684034 446.96431656 406.23046875 452.71484375 C413.92522426 470.38610151 421.64840356 488.04448321 429.4045105 505.68890381 C434.64203356 517.60551354 439.84820112 529.53465484 445.00415039 541.48681641 C448.21211813 548.9114767 451.45953979 556.31769248 454.73046875 563.71484375 C455.55863773 565.59047537 456.38676267 567.46612644 457.21484375 569.34179688 C458.44092222 572.11867418 459.66852995 574.89481738 460.90136719 577.66870117 C462.04631484 580.24483338 463.18572165 582.82335567 464.32421875 585.40234375 C464.66631882 586.16771957 465.00841888 586.9330954 465.36088562 587.72166443 C467.28388211 592.09323211 468.79787008 596.37627685 470 601 C463.24583767 598.94962929 456.90521245 596.27426404 450.49804688 593.33764648 C446.4145158 591.49196625 446.4145158 591.49196625 442 591 C451.21904326 604.14618857 461.36215355 616.48056961 472.35546875 628.17578125 C475.07443819 631.07949603 477.70055353 634.04522297 480.30078125 637.0546875 C482.29406428 639.3366529 484.33493027 641.57228574 486.375 643.8125 C491.68010001 649.68794353 496.63965678 655.83023104 501.60546875 661.9921875 C503.9345542 664.92941721 503.9345542 664.92941721 507 667 C507.34319695 656.70864367 507.67617992 646.4169834 508 636.125 C508.0237545 635.37020607 508.047509 634.61541214 508.07198334 633.83774567 C508.77021794 611.555845 509.34122178 589.29490615 509 567 C504.72173309 572.6607557 500.4504832 578.31961071 496.34765625 584.109375 C495.79916016 584.8828125 495.25066406 585.65625 494.68554688 586.453125 C493.57231372 588.02853077 492.46314301 589.60681275 491.35742188 591.1875 C490.81794922 591.94546875 490.27847656 592.7034375 489.72265625 593.484375 C489.00734741 594.50096191 489.00734741 594.50096191 488.27758789 595.53808594 C487.85598389 596.02051758 487.43437988 596.50294922 487 597 C486.34 597 485.68 597 485 597 C484.69521729 596.29544678 484.39043457 595.59089355 484.07641602 594.86499023 C471.00027848 564.64528085 457.84681367 534.45981732 444.59759521 504.31558228 C439.32785261 492.32417186 434.08991739 480.31988238 428.89038086 468.29785156 C424.54621617 458.25446164 420.1842739 448.21890325 415.8125 438.1875 C415.45663818 437.37087891 415.10077637 436.55425781 414.73413086 435.71289062 C408.78247004 422.05852842 402.79435245 408.42035323 396.79873657 394.7852478 C391.16325942 381.96574318 385.58122835 369.12414957 380.03634644 356.26522827 C371.78551673 337.13539115 363.39422197 318.06725246 355 299 C352.1804687 301.73916671 349.55527582 304.34908084 347.4140625 307.65234375 C346.74250122 308.67569824 346.74250122 308.67569824 346.05737305 309.71972656 C345.58468994 310.4515918 345.11200684 311.18345703 344.625 311.9375 C343.56234917 313.55674569 342.4984922 315.17520032 341.43359375 316.79296875 C340.87526855 317.64294434 340.31694336 318.49291992 339.74169922 319.36865234 C336.76890201 323.8599347 333.72783329 328.30427443 330.6875 332.75 C330.06085449 333.66724854 329.43420898 334.58449707 328.78857422 335.52954102 C327.50629151 337.40627132 326.22373774 339.28281644 324.94091797 341.15917969 C322.34424023 344.95980134 319.75298967 348.76410612 317.16235352 352.56884766 C315.90004981 354.42112887 314.63624515 356.27238821 313.37084961 358.12255859 C310.46091595 362.37758832 307.56699292 366.64088051 304.71875 370.9375 C303.96223145 372.06792725 303.96223145 372.06792725 303.19042969 373.22119141 C302.25563127 374.61895269 301.32869443 376.02201595 300.41113281 377.43115234 C299.35032508 379.00815296 298.18417003 380.51339806 297 382 C296.01 382 295.02 382 294 382 C292.20045089 379.99982549 290.60172189 378.02569004 289 375.875 C288.01066323 374.58054068 287.02107295 373.28627509 286.03125 371.9921875 C285.27521484 370.99396973 285.27521484 370.99396973 284.50390625 369.97558594 C282.2049065 366.95553626 279.85195376 363.97885942 277.5 361 C276.58303093 359.833571 275.66636526 358.66690342 274.75 357.5 C274.29625 356.9225 273.8425 356.345 273.375 355.75 C261 340 248.625 324.25 236.25 308.5 C235.79592773 307.92209717 235.34185547 307.34419434 234.87402344 306.7487793 C233.96058321 305.58620425 233.04717158 304.42360672 232.13378906 303.26098633 C229.79299623 300.28152964 227.45165419 297.30250713 225.109375 294.32421875 C220.05512366 287.89652023 215.01167826 281.46099885 210 275 C208.57536338 282.44243784 207.42016037 289.88092341 206.4753418 297.3984375 C206.33677765 298.48189453 206.1982135 299.56535156 206.05545044 300.68164062 C205.60044154 304.24572735 205.14971563 307.81034037 204.69921875 311.375 C204.37794404 313.90187993 204.05647308 316.42873492 203.7348175 318.95556641 C203.05968938 324.2644114 202.3865621 329.57350455 201.71508789 334.8828125 C200.87166793 341.55145167 200.02335309 348.2194561 199.17373753 354.88730907 C196.00505182 379.76721002 192.87437855 404.64858753 190.02151489 429.56687355 C188.00228126 447.19974245 185.77540332 464.80248981 183.48461914 482.4019165 C182.97268762 486.33994027 182.46406616 490.27839178 181.95507812 494.21679688 C180.97309707 501.81159473 179.98778327 509.40595435 179 517 C178.34 517 177.68 517 177 517 C176.78940948 516.49413864 176.57881897 515.98827728 176.36184692 515.46708679 C166.92658963 492.80356026 157.4862483 470.14223855 148 447.5 C141.69258236 432.44404592 135.40173994 417.38126986 129.125 402.3125 C128.70961975 401.31529938 128.2942395 400.31809875 127.86627197 399.29067993 C124.48662438 391.17675966 121.10791871 383.06244723 117.72924805 374.94812012 C114.77826964 367.86106444 111.82692308 360.77416225 108.875 353.6875 C108.45945862 352.68989655 108.04391724 351.69229309 107.61578369 350.66445923 C101.39334812 335.72768059 95.15271172 320.79860584 88.8999939 305.8744812 C82.38391262 290.32092642 75.89491752 274.75617939 69.41271973 259.18847656 C62.30273226 242.11403151 55.16700146 225.0505921 48 208 C47.34 208 46.68 208 46 208 C44.49269407 209.92639603 44.49269407 209.92639603 42.875 212.5625 C38.76969242 218.88123388 34.50267593 225.07278228 30.1875 231.25 C25.4752281 238.00418391 20.77613013 244.76606472 16.125 251.5625 C12.57776239 256.73397453 9.00011712 261.88276226 5.375 267 C4.94848145 267.60658447 4.52196289 268.21316895 4.08251953 268.83813477 C3.08075129 270.24412166 2.04405027 271.62511899 1 273 C0.67 273 0.34 273 0 273 C0 182.91 0 92.82 0 0 Z " fill="#181816" transform="translate(524,355)"></path>
</svg><style>@media (prefers-color-scheme: light) { :root { filter: none; } }
@media (prefers-color-scheme: dark) { :root { filter: none; } }
</style></svg>